<svg xmlns="http://www.w3.org/2000/svg" xmlns:xlink="http://www.w3.org/1999/xlink" width="1600" zoomAndPan="magnify" viewBox="0 0 1200 899.99999" height="1200" preserveAspectRatio="xMidYMid meet" version="1.0"><path fill="#ff6b6c" d="M 1153.378906 232.75 C 1118.445312 174.660156 1048.828125 137.839844 981.078125 143.6875 C 904.125 150.28125 831.273438 191.949219 755.8125 203.269531 C 690.050781 213.097656 623.292969 208.246094 557.40625 202.148438 C 437.4375 190.957031 309.269531 172.917969 196.636719 227.648438 C 104.640625 272.429688 33.90625 360.746094 11.527344 460.875 C 1.957031 503.914062 1.085938 553.792969 25.078125 592.605469 C 52.675781 637.382812 103.894531 645.964844 152.378906 639.25 C 211.554688 631.164062 266.628906 610.640625 327.292969 611.386719 C 391.316406 612.132812 454.097656 627.929688 515.136719 645.59375 C 626.773438 677.933594 741.519531 722.089844 859.867188 708.65625 C 960.191406 697.214844 1053.179688 641.984375 1114.46875 562.128906 C 1183.960938 471.449219 1215.414062 335.867188 1153.378906 232.75 Z M 1153.378906 232.75 " fill-opacity="1" fill-rule="nonzero"/></svg>