<svg xmlns="http://www.w3.org/2000/svg" xmlns:xlink="http://www.w3.org/1999/xlink" width="1080" zoomAndPan="magnify" viewBox="0 0 810 809.999993" height="1080" preserveAspectRatio="xMidYMid meet" version="1.0"><path fill="#5c913b" d="M 116.179688 170.304688 C 98.617188 209.859375 88.796875 253.390625 88.796875 299.195312 C 88.796875 479.003906 238.726562 624.769531 423.671875 624.769531 C 567.777344 624.769531 690.269531 536.082031 737.484375 411.9375 Z M 116.179688 170.304688 " fill-opacity="1" fill-rule="nonzero"/><path fill="#ffe8b6" d="M 150.785156 183.757812 C 134.914062 219.140625 126.003906 258.136719 126.003906 299.195312 C 126.003906 459.023438 259.285156 588.601562 423.671875 588.601562 C 552.113281 588.601562 661.246094 509.347656 702.972656 398.503906 Z M 150.785156 183.757812 " fill-opacity="1" fill-rule="nonzero"/><path fill="#dd2e44" d="M 185.371094 197.226562 C 171.210938 228.445312 163.210938 262.878906 163.210938 299.195312 C 163.210938 439.0625 279.824219 552.417969 423.671875 552.417969 C 536.449219 552.417969 632.222656 482.59375 668.425781 385.074219 Z M 185.371094 197.226562 " fill-opacity="1" fill-rule="nonzero"/><path fill="#000000" d="M 254.671875 313.652344 C 248.957031 322.210938 240.882812 326.824219 236.605469 323.976562 C 232.328125 321.128906 233.480469 311.902344 239.191406 303.34375 C 244.902344 294.785156 252.976562 290.171875 257.257812 293.019531 C 261.535156 295.867188 260.382812 305.09375 254.671875 313.652344 Z M 366.296875 332.253906 C 360.582031 340.8125 352.507812 345.425781 348.230469 342.582031 C 343.953125 339.734375 345.105469 330.507812 350.816406 321.949219 C 356.527344 313.390625 364.601562 308.777344 368.882812 311.625 C 373.160156 314.46875 372.007812 323.699219 366.296875 332.253906 Z M 460.839844 419.285156 C 461.773438 429.535156 458.386719 438.1875 453.289062 438.652344 C 448.171875 439.117188 443.277344 431.210938 442.347656 420.960938 C 441.398438 410.710938 444.804688 402.058594 449.902344 401.613281 C 455.019531 401.128906 459.910156 409.015625 460.839844 419.285156 Z M 293.402344 382.078125 C 294.335938 392.328125 290.949219 400.980469 285.851562 401.445312 C 280.734375 401.910156 275.839844 394.003906 274.910156 383.75 C 273.980469 373.5 277.367188 364.851562 282.464844 364.402344 C 287.597656 363.917969 292.472656 371.808594 293.402344 382.078125 Z M 365.980469 481.535156 C 359.785156 489.738281 351.46875 493.871094 347.375 490.78125 C 343.261719 487.691406 344.976562 478.539062 351.1875 470.335938 C 357.382812 462.132812 365.71875 458 369.792969 461.089844 C 373.902344 464.175781 372.210938 473.3125 365.980469 481.535156 Z M 515.480469 489.980469 C 520.5625 498.929688 521.042969 508.195312 516.597656 510.726562 C 512.113281 513.273438 504.394531 508.066406 499.316406 499.117188 C 494.234375 490.1875 493.753906 480.902344 498.21875 478.371094 C 502.699219 475.804688 510.402344 480.996094 515.480469 489.980469 Z M 384.9375 396.441406 C 390.574219 405.054688 391.671875 414.261719 387.375 417.070312 C 383.074219 419.898438 375.039062 415.210938 369.402344 406.617188 C 363.765625 398.019531 362.6875 388.792969 366.964844 386.003906 C 371.261719 383.136719 379.300781 387.808594 384.9375 396.441406 Z M 552.019531 425.722656 C 545.824219 433.925781 537.507812 438.058594 533.398438 434.96875 C 529.285156 431.878906 530.996094 422.726562 537.210938 414.523438 C 543.40625 406.300781 551.722656 402.1875 555.816406 405.277344 C 559.945312 408.363281 558.253906 417.5 552.019531 425.722656 Z M 552.019531 425.722656 " fill-opacity="1" fill-rule="nonzero"/></svg>