<svg xmlns="http://www.w3.org/2000/svg" xmlns:xlink="http://www.w3.org/1999/xlink" width="1080" zoomAndPan="magnify" viewBox="0 0 810 809.999993" height="1080" preserveAspectRatio="xMidYMid meet" version="1.0"><defs><clipPath id="b7df7826e1"><path d="M 202 26.363281 L 607.703125 26.363281 L 607.703125 783.859375 L 202 783.859375 Z M 202 26.363281 " clip-rule="nonzero"/></clipPath></defs><g clip-path="url(#b7df7826e1)"><path fill="#ffffff" d="M 506.273438 26.363281 C 399.746094 26.363281 337.273438 82.691406 337.273438 211.035156 L 337.273438 323.949219 L 202.15625 323.949219 L 202.15625 459.21875 L 337.273438 459.21875 L 337.273438 783.859375 L 472.386719 783.859375 L 472.386719 459.21875 L 580.480469 459.21875 L 607.503906 323.949219 L 472.386719 323.949219 L 472.386719 233.914062 C 472.386719 185.566406 488.136719 161.628906 533.453125 161.628906 L 607.503906 161.628906 L 607.503906 31.910156 C 594.695312 30.179688 557.371094 26.363281 506.273438 26.363281 Z M 506.273438 26.363281 " fill-opacity="1" fill-rule="nonzero"/></g></svg>