<svg xmlns="http://www.w3.org/2000/svg" xmlns:xlink="http://www.w3.org/1999/xlink" width="1080" zoomAndPan="magnify" viewBox="0 0 810 809.999993" height="1080" preserveAspectRatio="xMidYMid meet" version="1.0"><defs><clipPath id="4ea6549fbc"><path d="M 28.539062 28.539062 L 781.539062 28.539062 L 781.539062 781.539062 L 28.539062 781.539062 Z M 28.539062 28.539062 " clip-rule="nonzero"/></clipPath></defs><g clip-path="url(#4ea6549fbc)"><path fill="#ffffff" d="M 405.039062 292.089844 C 403.191406 292.089844 401.34375 292.132812 399.496094 292.226562 C 397.648438 292.316406 395.808594 292.453125 393.96875 292.632812 C 392.128906 292.8125 390.292969 293.039062 388.464844 293.3125 C 386.636719 293.582031 384.816406 293.898438 383.003906 294.257812 C 381.191406 294.621094 379.386719 295.023438 377.59375 295.472656 C 375.800781 295.921875 374.019531 296.414062 372.25 296.953125 C 370.480469 297.488281 368.726562 298.070312 366.988281 298.691406 C 365.246094 299.3125 363.523438 299.980469 361.816406 300.6875 C 360.105469 301.394531 358.417969 302.144531 356.746094 302.933594 C 355.074219 303.722656 353.425781 304.554688 351.792969 305.425781 C 350.164062 306.296875 348.554688 307.207031 346.972656 308.160156 C 345.386719 309.109375 343.824219 310.097656 342.289062 311.125 C 340.75 312.152344 339.238281 313.214844 337.753906 314.316406 C 336.269531 315.417969 334.8125 316.554688 333.382812 317.726562 C 331.957031 318.898438 330.554688 320.105469 329.1875 321.347656 C 327.816406 322.589844 326.476562 323.863281 325.171875 325.171875 C 323.863281 326.476562 322.589844 327.816406 321.347656 329.1875 C 320.105469 330.554688 318.898438 331.957031 317.726562 333.382812 C 316.554688 334.8125 315.417969 336.269531 314.316406 337.753906 C 313.214844 339.238281 312.152344 340.75 311.125 342.289062 C 310.097656 343.824219 309.109375 345.386719 308.160156 346.972656 C 307.207031 348.554688 306.296875 350.164062 305.425781 351.792969 C 304.554688 353.425781 303.722656 355.074219 302.933594 356.746094 C 302.144531 358.417969 301.394531 360.105469 300.6875 361.816406 C 299.980469 363.523438 299.3125 365.246094 298.691406 366.988281 C 298.070312 368.726562 297.488281 370.480469 296.953125 372.25 C 296.414062 374.019531 295.921875 375.800781 295.472656 377.59375 C 295.023438 379.386719 294.621094 381.191406 294.257812 383.003906 C 293.898438 384.816406 293.582031 386.636719 293.3125 388.464844 C 293.039062 390.292969 292.8125 392.128906 292.632812 393.96875 C 292.453125 395.808594 292.316406 397.648438 292.226562 399.496094 C 292.132812 401.34375 292.089844 403.191406 292.089844 405.039062 C 292.089844 406.886719 292.132812 408.734375 292.226562 410.582031 C 292.316406 412.425781 292.453125 414.269531 292.632812 416.109375 C 292.8125 417.949219 293.039062 419.785156 293.3125 421.613281 C 293.582031 423.441406 293.898438 425.261719 294.257812 427.074219 C 294.621094 428.886719 295.023438 430.691406 295.472656 432.484375 C 295.921875 434.277344 296.414062 436.058594 296.953125 437.828125 C 297.488281 439.59375 298.070312 441.351562 298.691406 443.089844 C 299.3125 444.832031 299.980469 446.554688 300.6875 448.261719 C 301.394531 449.96875 302.144531 451.660156 302.933594 453.332031 C 303.722656 455.003906 304.554688 456.652344 305.425781 458.28125 C 306.296875 459.914062 307.207031 461.519531 308.160156 463.105469 C 309.109375 464.691406 310.097656 466.253906 311.125 467.789062 C 312.152344 469.328125 313.214844 470.839844 314.316406 472.324219 C 315.417969 473.808594 316.554688 475.265625 317.726562 476.695312 C 318.898438 478.121094 320.105469 479.523438 321.347656 480.890625 C 322.589844 482.261719 323.863281 483.597656 325.171875 484.90625 C 326.476562 486.214844 327.816406 487.488281 329.1875 488.730469 C 330.554688 489.96875 331.957031 491.175781 333.382812 492.351562 C 334.8125 493.523438 336.269531 494.660156 337.753906 495.761719 C 339.238281 496.863281 340.75 497.925781 342.289062 498.953125 C 343.824219 499.980469 345.386719 500.96875 346.972656 501.917969 C 348.554688 502.871094 350.164062 503.78125 351.792969 504.652344 C 353.425781 505.523438 355.074219 506.355469 356.746094 507.144531 C 358.417969 507.933594 360.105469 508.683594 361.816406 509.390625 C 363.523438 510.097656 365.246094 510.761719 366.988281 511.386719 C 368.726562 512.007812 370.480469 512.589844 372.25 513.125 C 374.019531 513.660156 375.800781 514.15625 377.59375 514.605469 C 379.386719 515.054688 381.191406 515.457031 383.003906 515.820312 C 384.816406 516.179688 386.636719 516.496094 388.464844 516.765625 C 390.292969 517.039062 392.128906 517.265625 393.96875 517.445312 C 395.808594 517.625 397.648438 517.761719 399.496094 517.851562 C 401.34375 517.945312 403.191406 517.988281 405.039062 517.988281 C 406.886719 517.988281 408.734375 517.945312 410.582031 517.851562 C 412.425781 517.761719 414.269531 517.625 416.109375 517.445312 C 417.949219 517.265625 419.785156 517.039062 421.613281 516.765625 C 423.441406 516.496094 425.261719 516.179688 427.074219 515.820312 C 428.886719 515.457031 430.691406 515.054688 432.484375 514.605469 C 434.277344 514.15625 436.058594 513.660156 437.828125 513.125 C 439.59375 512.589844 441.351562 512.007812 443.089844 511.386719 C 444.832031 510.761719 446.554688 510.097656 448.261719 509.390625 C 449.96875 508.683594 451.660156 507.933594 453.332031 507.144531 C 455.003906 506.355469 456.652344 505.523438 458.28125 504.652344 C 459.914062 503.78125 461.519531 502.871094 463.105469 501.917969 C 464.691406 500.96875 466.253906 499.980469 467.789062 498.953125 C 469.328125 497.925781 470.839844 496.863281 472.324219 495.761719 C 473.808594 494.660156 475.265625 493.523438 476.695312 492.351562 C 478.121094 491.175781 479.523438 489.96875 480.890625 488.730469 C 482.261719 487.488281 483.597656 486.214844 484.90625 484.90625 C 486.214844 483.597656 487.488281 482.261719 488.730469 480.890625 C 489.96875 479.523438 491.175781 478.121094 492.351562 476.695312 C 493.523438 475.265625 494.660156 473.808594 495.761719 472.324219 C 496.863281 470.839844 497.925781 469.328125 498.953125 467.789062 C 499.980469 466.253906 500.96875 464.691406 501.917969 463.105469 C 502.871094 461.519531 503.78125 459.914062 504.652344 458.28125 C 505.523438 456.652344 506.355469 455.003906 507.144531 453.332031 C 507.933594 451.660156 508.683594 449.96875 509.390625 448.261719 C 510.097656 446.554688 510.761719 444.832031 511.386719 443.089844 C 512.007812 441.351562 512.589844 439.59375 513.125 437.828125 C 513.660156 436.058594 514.15625 434.277344 514.605469 432.484375 C 515.054688 430.691406 515.457031 428.886719 515.820312 427.074219 C 516.179688 425.261719 516.496094 423.441406 516.765625 421.613281 C 517.039062 419.785156 517.265625 417.949219 517.445312 416.109375 C 517.625 414.269531 517.761719 412.425781 517.851562 410.582031 C 517.945312 408.734375 517.988281 406.886719 517.988281 405.039062 C 517.988281 403.191406 517.945312 401.34375 517.851562 399.496094 C 517.761719 397.648438 517.625 395.808594 517.445312 393.96875 C 517.265625 392.128906 517.039062 390.292969 516.765625 388.464844 C 516.496094 386.636719 516.179688 384.816406 515.820312 383.003906 C 515.457031 381.191406 515.054688 379.386719 514.605469 377.59375 C 514.15625 375.800781 513.660156 374.019531 513.125 372.25 C 512.589844 370.480469 512.007812 368.726562 511.386719 366.988281 C 510.761719 365.246094 510.097656 363.523438 509.390625 361.816406 C 508.683594 360.105469 507.933594 358.417969 507.144531 356.746094 C 506.355469 355.074219 505.523438 353.425781 504.652344 351.792969 C 503.78125 350.164062 502.871094 348.554688 501.917969 346.972656 C 500.96875 345.386719 499.980469 343.824219 498.953125 342.289062 C 497.925781 340.75 496.863281 339.238281 495.761719 337.753906 C 494.660156 336.269531 493.523438 334.8125 492.351562 333.382812 C 491.175781 331.957031 489.96875 330.554688 488.730469 329.1875 C 487.488281 327.816406 486.214844 326.476562 484.90625 325.171875 C 483.597656 323.863281 482.261719 322.589844 480.890625 321.347656 C 479.523438 320.105469 478.121094 318.898438 476.695312 317.726562 C 475.265625 316.554688 473.808594 315.417969 472.324219 314.316406 C 470.839844 313.214844 469.328125 312.152344 467.789062 311.125 C 466.253906 310.097656 464.691406 309.109375 463.105469 308.160156 C 461.519531 307.207031 459.914062 306.296875 458.28125 305.425781 C 456.652344 304.554688 455.003906 303.722656 453.332031 302.933594 C 451.660156 302.144531 449.96875 301.394531 448.261719 300.6875 C 446.554688 299.980469 444.832031 299.3125 443.089844 298.691406 C 441.351562 298.070312 439.59375 297.488281 437.828125 296.953125 C 436.058594 296.414062 434.277344 295.921875 432.484375 295.472656 C 430.691406 295.023438 428.886719 294.621094 427.074219 294.257812 C 425.261719 293.898438 423.441406 293.582031 421.613281 293.3125 C 419.785156 293.039062 417.949219 292.8125 416.109375 292.632812 C 414.269531 292.453125 412.425781 292.316406 410.582031 292.226562 C 408.734375 292.132812 406.886719 292.089844 405.039062 292.089844 Z M 405.039062 216.789062 C 408.121094 216.789062 411.199219 216.863281 414.277344 217.015625 C 417.351562 217.167969 420.425781 217.394531 423.492188 217.695312 C 426.554688 217.996094 429.613281 218.375 432.660156 218.828125 C 435.707031 219.277344 438.742188 219.804688 441.765625 220.40625 C 444.785156 221.007812 447.792969 221.683594 450.78125 222.429688 C 453.769531 223.179688 456.738281 224 459.683594 224.894531 C 462.632812 225.789062 465.558594 226.753906 468.457031 227.792969 C 471.359375 228.832031 474.234375 229.941406 477.078125 231.117188 C 479.925781 232.296875 482.742188 233.546875 485.527344 234.863281 C 488.3125 236.179688 491.0625 237.566406 493.777344 239.015625 C 496.496094 240.46875 499.175781 241.988281 501.820312 243.570312 C 504.460938 245.15625 507.0625 246.804688 509.625 248.515625 C 512.1875 250.226562 514.703125 252 517.179688 253.835938 C 519.652344 255.671875 522.082031 257.566406 524.464844 259.519531 C 526.84375 261.472656 529.175781 263.484375 531.460938 265.554688 C 533.742188 267.625 535.972656 269.746094 538.152344 271.925781 C 540.332031 274.105469 542.453125 276.335938 544.523438 278.617188 C 546.59375 280.902344 548.605469 283.234375 550.558594 285.613281 C 552.511719 287.996094 554.40625 290.425781 556.242188 292.898438 C 558.078125 295.371094 559.851562 297.890625 561.5625 300.453125 C 563.273438 303.015625 564.921875 305.617188 566.507812 308.257812 C 568.089844 310.902344 569.609375 313.582031 571.058594 316.296875 C 572.511719 319.015625 573.898438 321.765625 575.214844 324.550781 C 576.53125 327.335938 577.78125 330.152344 578.960938 333 C 580.136719 335.84375 581.246094 338.71875 582.285156 341.621094 C 583.324219 344.519531 584.289062 347.445312 585.183594 350.394531 C 586.078125 353.339844 586.898438 356.308594 587.648438 359.296875 C 588.394531 362.285156 589.070312 365.292969 589.671875 368.3125 C 590.273438 371.335938 590.800781 374.371094 591.25 377.417969 C 591.703125 380.464844 592.082031 383.519531 592.382812 386.585938 C 592.683594 389.652344 592.910156 392.726562 593.0625 395.800781 C 593.214844 398.878906 593.289062 401.957031 593.289062 405.039062 C 593.289062 408.121094 593.214844 411.199219 593.0625 414.277344 C 592.910156 417.351562 592.683594 420.425781 592.382812 423.492188 C 592.082031 426.554688 591.703125 429.613281 591.25 432.660156 C 590.800781 435.707031 590.273438 438.742188 589.671875 441.765625 C 589.070312 444.785156 588.394531 447.792969 587.648438 450.78125 C 586.898438 453.769531 586.078125 456.738281 585.183594 459.683594 C 584.289062 462.632812 583.324219 465.558594 582.285156 468.457031 C 581.246094 471.359375 580.136719 474.234375 578.960938 477.078125 C 577.78125 479.925781 576.53125 482.742188 575.214844 485.527344 C 573.898438 488.3125 572.511719 491.0625 571.058594 493.777344 C 569.609375 496.496094 568.089844 499.175781 566.507812 501.820312 C 564.921875 504.460938 563.273438 507.0625 561.5625 509.625 C 559.851562 512.1875 558.078125 514.703125 556.242188 517.179688 C 554.40625 519.652344 552.511719 522.082031 550.558594 524.464844 C 548.605469 526.84375 546.59375 529.175781 544.523438 531.460938 C 542.453125 533.742188 540.332031 535.972656 538.152344 538.152344 C 535.972656 540.332031 533.742188 542.453125 531.460938 544.523438 C 529.175781 546.59375 526.84375 548.605469 524.464844 550.558594 C 522.082031 552.511719 519.652344 554.40625 517.179688 556.242188 C 514.703125 558.078125 512.1875 559.851562 509.625 561.5625 C 507.0625 563.273438 504.460938 564.921875 501.820312 566.507812 C 499.175781 568.089844 496.496094 569.609375 493.777344 571.058594 C 491.0625 572.511719 488.3125 573.898438 485.527344 575.214844 C 482.742188 576.53125 479.925781 577.78125 477.078125 578.960938 C 474.234375 580.136719 471.359375 581.246094 468.457031 582.285156 C 465.558594 583.324219 462.632812 584.289062 459.683594 585.183594 C 456.738281 586.078125 453.769531 586.898438 450.78125 587.648438 C 447.792969 588.394531 444.785156 589.070312 441.765625 589.671875 C 438.742188 590.273438 435.707031 590.800781 432.660156 591.25 C 429.613281 591.703125 426.554688 592.082031 423.492188 592.382812 C 420.425781 592.683594 417.351562 592.910156 414.277344 593.0625 C 411.199219 593.214844 408.121094 593.289062 405.039062 593.289062 C 401.957031 593.289062 398.878906 593.214844 395.800781 593.0625 C 392.726562 592.910156 389.652344 592.683594 386.585938 592.382812 C 383.519531 592.082031 380.464844 591.703125 377.417969 591.25 C 374.371094 590.800781 371.335938 590.273438 368.3125 589.671875 C 365.292969 589.070312 362.285156 588.394531 359.296875 587.648438 C 356.308594 586.898438 353.339844 586.078125 350.394531 585.183594 C 347.445312 584.289062 344.519531 583.324219 341.621094 582.285156 C 338.71875 581.246094 335.84375 580.136719 333 578.960938 C 330.152344 577.78125 327.335938 576.53125 324.550781 575.214844 C 321.765625 573.898438 319.015625 572.511719 316.296875 571.058594 C 313.582031 569.609375 310.902344 568.089844 308.257812 566.507812 C 305.617188 564.921875 303.015625 563.273438 300.453125 561.5625 C 297.890625 559.851562 295.371094 558.078125 292.898438 556.242188 C 290.425781 554.40625 287.996094 552.511719 285.613281 550.558594 C 283.234375 548.605469 280.902344 546.59375 278.617188 544.523438 C 276.335938 542.453125 274.105469 540.332031 271.925781 538.152344 C 269.746094 535.972656 267.625 533.742188 265.554688 531.460938 C 263.484375 529.175781 261.472656 526.84375 259.519531 524.464844 C 257.566406 522.082031 255.671875 519.652344 253.835938 517.179688 C 252 514.703125 250.226562 512.1875 248.515625 509.625 C 246.804688 507.0625 245.15625 504.460938 243.570312 501.820312 C 241.988281 499.175781 240.46875 496.496094 239.015625 493.777344 C 237.566406 491.0625 236.179688 488.3125 234.863281 485.527344 C 233.546875 482.742188 232.296875 479.925781 231.117188 477.078125 C 229.941406 474.234375 228.832031 471.359375 227.792969 468.457031 C 226.753906 465.558594 225.789062 462.632812 224.894531 459.683594 C 224 456.738281 223.179688 453.769531 222.429688 450.78125 C 221.683594 447.792969 221.007812 444.785156 220.40625 441.765625 C 219.804688 438.742188 219.277344 435.707031 218.828125 432.660156 C 218.375 429.613281 217.996094 426.554688 217.695312 423.492188 C 217.394531 420.425781 217.167969 417.351562 217.015625 414.277344 C 216.863281 411.199219 216.789062 408.121094 216.789062 405.039062 C 216.789062 401.957031 216.863281 398.878906 217.015625 395.800781 C 217.167969 392.726562 217.394531 389.652344 217.695312 386.585938 C 217.996094 383.519531 218.375 380.464844 218.828125 377.417969 C 219.277344 374.371094 219.804688 371.335938 220.40625 368.3125 C 221.007812 365.292969 221.683594 362.285156 222.429688 359.296875 C 223.179688 356.308594 224 353.339844 224.894531 350.394531 C 225.789062 347.445312 226.753906 344.519531 227.792969 341.621094 C 228.832031 338.71875 229.941406 335.84375 231.117188 333 C 232.296875 330.152344 233.546875 327.335938 234.863281 324.550781 C 236.179688 321.765625 237.566406 319.015625 239.015625 316.296875 C 240.46875 313.582031 241.988281 310.902344 243.570312 308.257812 C 245.15625 305.617188 246.804688 303.015625 248.515625 300.453125 C 250.226562 297.890625 252 295.371094 253.835938 292.898438 C 255.671875 290.425781 257.566406 287.996094 259.519531 285.613281 C 261.472656 283.234375 263.484375 280.902344 265.554688 278.617188 C 267.625 276.335938 269.746094 274.105469 271.925781 271.925781 C 274.105469 269.746094 276.335938 267.625 278.617188 265.554688 C 280.902344 263.484375 283.234375 261.472656 285.613281 259.519531 C 287.996094 257.566406 290.425781 255.671875 292.898438 253.835938 C 295.371094 252 297.890625 250.226562 300.453125 248.515625 C 303.015625 246.804688 305.617188 245.15625 308.257812 243.570312 C 310.902344 241.988281 313.582031 240.46875 316.296875 239.015625 C 319.015625 237.566406 321.765625 236.179688 324.550781 234.863281 C 327.335938 233.546875 330.152344 232.296875 333 231.117188 C 335.84375 229.941406 338.71875 228.832031 341.621094 227.792969 C 344.519531 226.753906 347.445312 225.789062 350.394531 224.894531 C 353.339844 224 356.308594 223.179688 359.296875 222.429688 C 362.285156 221.683594 365.292969 221.007812 368.3125 220.40625 C 371.335938 219.804688 374.371094 219.277344 377.417969 218.828125 C 380.464844 218.375 383.519531 217.996094 386.585938 217.695312 C 389.652344 217.394531 392.726562 217.167969 395.800781 217.015625 C 398.878906 216.863281 401.957031 216.789062 405.039062 216.789062 Z M 649.765625 207.375 C 649.765625 208.917969 649.6875 210.457031 649.539062 211.988281 C 649.386719 213.523438 649.160156 215.046875 648.859375 216.558594 C 648.558594 218.070312 648.183594 219.5625 647.738281 221.039062 C 647.289062 222.511719 646.769531 223.960938 646.179688 225.386719 C 645.589844 226.808594 644.933594 228.203125 644.207031 229.5625 C 643.480469 230.921875 642.6875 232.242188 641.832031 233.523438 C 640.976562 234.804688 640.058594 236.039062 639.082031 237.234375 C 638.101562 238.425781 637.070312 239.566406 635.980469 240.65625 C 634.890625 241.746094 633.75 242.777344 632.558594 243.757812 C 631.367188 244.734375 630.128906 245.652344 628.847656 246.507812 C 627.566406 247.363281 626.246094 248.15625 624.886719 248.882812 C 623.527344 249.609375 622.136719 250.265625 620.710938 250.855469 C 619.289062 251.445312 617.835938 251.964844 616.363281 252.414062 C 614.886719 252.859375 613.394531 253.234375 611.882812 253.535156 C 610.371094 253.835938 608.847656 254.0625 607.3125 254.210938 C 605.78125 254.363281 604.242188 254.4375 602.703125 254.4375 C 601.160156 254.4375 599.621094 254.363281 598.089844 254.210938 C 596.554688 254.0625 595.03125 253.835938 593.519531 253.535156 C 592.007812 253.234375 590.515625 252.859375 589.039062 252.414062 C 587.566406 251.964844 586.117188 251.445312 584.691406 250.855469 C 583.265625 250.265625 581.875 249.609375 580.515625 248.882812 C 579.15625 248.15625 577.835938 247.363281 576.554688 246.507812 C 575.273438 245.652344 574.035156 244.734375 572.84375 243.757812 C 571.652344 242.777344 570.511719 241.746094 569.421875 240.65625 C 568.332031 239.566406 567.300781 238.425781 566.320312 237.234375 C 565.34375 236.039062 564.425781 234.804688 563.570312 233.523438 C 562.714844 232.242188 561.921875 230.921875 561.195312 229.5625 C 560.46875 228.203125 559.8125 226.808594 559.222656 225.386719 C 558.632812 223.960938 558.113281 222.511719 557.664062 221.039062 C 557.21875 219.5625 556.84375 218.070312 556.542969 216.558594 C 556.242188 215.046875 556.015625 213.523438 555.867188 211.988281 C 555.714844 210.457031 555.640625 208.917969 555.640625 207.375 C 555.640625 205.835938 555.714844 204.296875 555.867188 202.761719 C 556.015625 201.230469 556.242188 199.707031 556.542969 198.195312 C 556.84375 196.683594 557.21875 195.191406 557.664062 193.714844 C 558.113281 192.238281 558.632812 190.789062 559.222656 189.367188 C 559.8125 187.941406 560.46875 186.550781 561.195312 185.191406 C 561.921875 183.832031 562.714844 182.511719 563.570312 181.230469 C 564.425781 179.949219 565.34375 178.710938 566.320312 177.519531 C 567.300781 176.328125 568.332031 175.1875 569.421875 174.097656 C 570.511719 173.007812 571.652344 171.972656 572.84375 170.996094 C 574.035156 170.019531 575.273438 169.101562 576.554688 168.246094 C 577.835938 167.390625 579.15625 166.597656 580.515625 165.871094 C 581.875 165.144531 583.265625 164.484375 584.691406 163.894531 C 586.117188 163.304688 587.566406 162.789062 589.039062 162.339844 C 590.515625 161.894531 592.007812 161.519531 593.519531 161.21875 C 595.03125 160.917969 596.554688 160.691406 598.089844 160.539062 C 599.621094 160.390625 601.160156 160.3125 602.703125 160.3125 C 604.242188 160.3125 605.78125 160.390625 607.3125 160.539062 C 608.847656 160.691406 610.371094 160.917969 611.882812 161.21875 C 613.394531 161.519531 614.886719 161.894531 616.363281 162.339844 C 617.835938 162.789062 619.289062 163.304688 620.710938 163.894531 C 622.136719 164.484375 623.527344 165.144531 624.886719 165.871094 C 626.246094 166.597656 627.566406 167.390625 628.847656 168.246094 C 630.128906 169.101562 631.367188 170.019531 632.558594 170.996094 C 633.75 171.972656 634.890625 173.007812 635.980469 174.097656 C 637.070312 175.1875 638.101562 176.328125 639.082031 177.519531 C 640.058594 178.710938 640.976562 179.949219 641.832031 181.230469 C 642.6875 182.511719 643.480469 183.832031 644.207031 185.191406 C 644.933594 186.550781 645.589844 187.941406 646.179688 189.367188 C 646.769531 190.789062 647.289062 192.238281 647.738281 193.714844 C 648.183594 195.191406 648.558594 196.683594 648.859375 198.195312 C 649.160156 199.707031 649.386719 201.230469 649.539062 202.761719 C 649.6875 204.296875 649.765625 205.835938 649.765625 207.375 Z M 405.039062 103.839844 C 311.894531 103.839844 296.683594 104.101562 253.347656 106.023438 C 223.828125 107.414062 204.027344 111.367188 185.652344 118.574219 C 177.964844 121.394531 170.6875 125.039062 163.824219 129.507812 C 156.960938 133.976562 150.683594 139.152344 144.992188 145.039062 C 139.097656 150.734375 133.914062 157.011719 129.441406 163.875 C 124.96875 170.738281 121.316406 178.015625 118.484375 185.703125 C 111.332031 204.152344 107.378906 223.917969 106.023438 253.398438 C 104.066406 294.914062 103.839844 309.445312 103.839844 405.039062 C 103.839844 498.183594 104.101562 513.394531 106.023438 556.730469 C 107.414062 586.210938 111.367188 606.050781 118.484375 624.386719 C 119.949219 628.191406 121.609375 631.90625 123.460938 635.535156 C 125.316406 639.167969 127.351562 642.691406 129.574219 646.105469 C 131.796875 649.523438 134.1875 652.816406 136.753906 655.984375 C 139.320312 659.148438 142.042969 662.175781 144.921875 665.058594 C 147.804688 667.941406 150.828125 670.664062 153.992188 673.230469 C 157.15625 675.796875 160.449219 678.191406 163.863281 680.414062 C 167.28125 682.640625 170.800781 684.679688 174.429688 686.535156 C 178.058594 688.390625 181.773438 690.050781 185.578125 691.519531 C 204.175781 698.707031 223.980469 702.699219 253.347656 704.066406 C 294.914062 706.011719 309.445312 706.238281 405.039062 706.238281 C 498.183594 706.238281 513.394531 705.976562 556.730469 704.054688 C 586.171875 702.660156 606.015625 698.707031 624.386719 691.59375 C 632.0625 688.753906 639.332031 685.105469 646.195312 680.648438 C 653.054688 676.1875 659.339844 671.027344 665.050781 665.164062 C 670.941406 659.46875 676.125 653.191406 680.597656 646.328125 C 685.070312 639.464844 688.722656 632.1875 691.554688 624.5 C 698.707031 605.9375 702.699219 586.097656 704.105469 556.730469 C 706.011719 515.164062 706.238281 500.632812 706.238281 405.039062 C 706.238281 311.894531 705.976562 296.683594 704.054688 253.347656 C 702.660156 223.90625 698.707031 204.027344 691.503906 185.652344 C 688.667969 177.972656 685.015625 170.699219 680.546875 163.839844 C 676.082031 156.976562 670.910156 150.695312 665.039062 144.992188 C 659.34375 139.097656 653.066406 133.914062 646.203125 129.4375 C 639.339844 124.964844 632.0625 121.3125 624.375 118.484375 C 605.925781 111.332031 586.121094 107.378906 556.679688 106.023438 C 515.164062 104.066406 500.632812 103.839844 405.039062 103.839844 Z M 405.039062 28.539062 C 507.332031 28.539062 520.097656 28.914062 560.230469 30.796875 C 600.367188 32.679688 627.625 38.96875 651.644531 48.367188 C 664.21875 53.078125 676.132812 59.089844 687.386719 66.414062 C 698.636719 73.734375 708.964844 82.191406 718.363281 91.777344 C 727.933594 101.191406 736.378906 111.519531 743.699219 122.773438 C 751.019531 134.023438 757.042969 145.929688 761.773438 158.492188 C 771.070312 182.476562 777.398438 209.8125 779.34375 249.910156 C 781.289062 290.003906 781.539062 302.742188 781.539062 405.039062 C 781.539062 507.332031 781.164062 520.097656 779.28125 560.230469 C 777.398438 600.367188 771.070312 627.625 761.710938 651.644531 C 759.300781 657.886719 756.578125 663.980469 753.53125 669.9375 C 750.488281 675.890625 747.144531 681.671875 743.496094 687.277344 C 739.847656 692.878906 735.917969 698.28125 731.707031 703.476562 C 727.496094 708.671875 723.027344 713.632812 718.300781 718.363281 C 713.570312 723.089844 708.609375 727.558594 703.414062 731.769531 C 698.21875 735.980469 692.816406 739.910156 687.210938 743.558594 C 681.609375 747.207031 675.828125 750.550781 669.875 753.59375 C 663.917969 756.640625 657.824219 759.363281 651.582031 761.773438 C 627.601562 771.070312 600.265625 777.398438 560.167969 779.34375 C 520.070312 781.289062 507.332031 781.539062 405.039062 781.539062 C 302.742188 781.539062 289.980469 781.164062 249.84375 779.28125 C 209.710938 777.398438 182.453125 771.070312 158.429688 761.710938 C 145.863281 756.992188 133.953125 750.972656 122.699219 743.652344 C 111.449219 736.328125 101.121094 727.878906 91.714844 718.300781 C 82.144531 708.898438 73.699219 698.578125 66.378906 687.339844 C 59.058594 676.097656 53.03125 664.199219 48.304688 651.644531 C 38.96875 627.664062 32.679688 600.328125 30.796875 560.230469 C 28.914062 520.136719 28.539062 507.332031 28.539062 405.039062 C 28.539062 302.742188 28.914062 289.980469 30.796875 249.84375 C 32.679688 209.710938 38.96875 182.453125 48.367188 158.429688 C 53.070312 145.863281 59.078125 133.953125 66.386719 122.699219 C 73.699219 111.445312 82.140625 101.117188 91.714844 91.714844 C 101.121094 82.136719 111.449219 73.6875 122.703125 66.367188 C 133.953125 59.046875 145.863281 53.023438 158.429688 48.304688 C 182.453125 38.96875 209.710938 32.679688 249.84375 30.796875 C 289.980469 28.914062 302.742188 28.539062 405.039062 28.539062 Z M 405.039062 28.539062 " fill-opacity="1" fill-rule="nonzero"/></g></svg>