<svg xmlns="http://www.w3.org/2000/svg" xmlns:xlink="http://www.w3.org/1999/xlink" width="1080" zoomAndPan="magnify" viewBox="0 0 810 809.999993" height="1080" preserveAspectRatio="xMidYMid meet" version="1.0"><defs><clipPath id="9528aec0ae"><path d="M 32.496094 56 L 792.246094 56 L 792.246094 774 L 32.496094 774 Z M 32.496094 56 " clip-rule="nonzero"/></clipPath></defs><g clip-path="url(#9528aec0ae)"><path fill="#ffffff" d="M 37.589844 768.523438 L 331.484375 455.675781 L 32.496094 56.570312 C 107.835938 56.570312 174.59375 55.144531 241.199219 57.871094 C 253.054688 58.355469 266.332031 74.488281 275.308594 86.160156 C 334.726562 163.507812 393.117188 241.613281 455.085938 323.753906 C 530.878906 243.433594 604.367188 165.511719 677.886719 87.648438 C 710.449219 53.203125 710.507812 53.261719 765.261719 61.027344 L 483.886719 362.53125 L 792.242188 773.070312 C 715.84375 773.070312 648.054688 774.042969 580.386719 771.980469 C 570.835938 771.675781 560.105469 757.730469 552.707031 747.996094 C 489.316406 664.644531 426.558594 580.839844 360.316406 492.820312 C 279.15625 578.992188 200.695312 662.339844 122.144531 745.632812 C 92.496094 777.074219 92.402344 777.011719 37.589844 768.523438 Z M 133.878906 108.691406 C 143.304688 122.789062 150.402344 134.644531 158.675781 145.648438 C 291.789062 322.742188 425.011719 499.773438 558.347656 676.742188 C 600.304688 732.535156 619.921875 738.871094 694.53125 719.554688 C 686.800781 708.488281 679.828125 697.878906 672.21875 687.71875 C 539.882812 511.859375 404.667969 338.035156 276.730469 158.992188 C 237.472656 104.082031 194.421875 98.5625 133.878906 108.6875 Z M 133.878906 108.691406 " fill-opacity="1" fill-rule="nonzero"/></g></svg>